<?xml version="1.0" encoding="UTF-8"?>
<svg width="960px" height="1147px" viewBox="0 0 960 1147" version="1.1" xmlns="http://www.w3.org/2000/svg" xmlns:xlink="http://www.w3.org/1999/xlink">
    <!-- Generator: Sketch 49 (51002) - http://www.bohemiancoding.com/sketch -->
    <title>img_article1_img2_slice</title>
    <desc>Created with Sketch.</desc>
    <defs></defs>
    <g id="资源（√）" stroke="none" stroke-width="1" fill="none" fill-rule="evenodd">
        <g id="Artboard" transform="translate(-240.000000, -1629.000000)">
            <g id="img_article1_img2" transform="translate(240.000000, 1629.000000)">
                <rect id="Rectangle-7" stroke="#ECECEC" x="0.5" y="0.5" width="959" height="1146" rx="16"></rect>
                <text id="从数据看-Apple-零售的成功" font-family="PingFangSC-Semibold, PingFang SC" font-size="24" font-weight="500" fill="#434959">
                    <tspan x="116" y="65">从数据看 Apple 零售的成功</tspan>
                </text>
                <path d="M260,133 L260,378 L192.314286,378 L192.314286,217.460094 C181.36185,225.785644 170.765527,232.522666 160.525,237.671362 C150.284473,242.820057 137.442934,247.749585 122,252.460094 L122,197.577465 C144.781066,190.237835 162.468985,181.419457 175.064286,171.122066 C187.659587,160.824675 197.516631,148.117446 204.635714,133 L260,133 Z" id="1" fill="#F6F6F6"></path>
                <path d="M734,702 L568,702 C569.90181,685.571123 575.675075,670.118226 585.319967,655.640845 C594.96486,641.163464 613.054423,624.076781 639.589198,604.380282 C655.799863,592.308234 666.169099,583.140876 670.697218,576.877934 C675.225336,570.614992 677.489362,564.669825 677.489362,559.042254 C677.489362,552.960846 675.247977,547.764497 670.765139,543.453052 C666.282302,539.141606 660.644878,536.985915 653.8527,536.985915 C646.788835,536.985915 641.015571,539.20968 636.532733,543.657277 C632.049896,548.104874 629.038742,555.956125 627.499182,567.211268 L572.075286,562.71831 C574.248783,547.106338 578.233468,534.921014 584.02946,526.161972 C589.825452,517.40293 597.998583,510.686252 608.5491,506.011737 C619.099616,501.337222 633.70258,499 652.358429,499 C671.829339,499 686.975669,501.223765 697.797872,505.671362 C708.620076,510.118958 717.132811,516.949093 723.336334,526.161972 C729.539856,535.37485 732.641571,545.699473 732.641571,557.13615 C732.641571,569.298965 729.087051,580.917003 721.977905,591.99061 C714.868759,603.064218 701.941174,615.226851 683.194763,628.478873 C672.055591,636.194092 664.606947,641.594664 660.848609,644.680751 C657.09027,647.766839 652.675421,651.805922 647.603928,656.798122 L734,656.798122 L734,702 Z" id="2" fill="#F6F6F6"></path>
                <rect id="Rectangle-9" fill="#ECECEC" x="115" y="438" width="730" height="1"></rect>
                <rect id="Rectangle-9-Copy" fill="#ECECEC" x="115" y="762" width="730" height="1"></rect>
                <rect id="Rectangle-9-Copy-2" fill="#ECECEC" x="115" y="1086" width="730" height="1"></rect>
                <g id="Group-5" transform="translate(194.000000, 535.000000)">
                    <text id="人均消费" font-family="PingFangSC-Semibold, PingFang SC" font-size="36" font-weight="500" fill="#434959">
                        <tspan x="62" y="38">人均消费</tspan>
                    </text>
                    <g id="user" transform="translate(3.000000, 8.000000)" fill="#4286F3">
                        <path d="M22.1797052,34 C21.4569161,27.84175 18.8917234,22.6666667 12.5,22.6666667 C6.10827664,22.6666667 3.5430839,27.84175 2.82029478,34 L0,34 C0.921201814,26.3145833 4.54931973,19.8333333 12.5,19.8333333 C20.4506803,19.8333333 24.0787982,26.3145833 25,34 L22.1797052,34 L22.1797052,34 Z M12.5,17 C7.80370111,17 3.99659864,13.1944204 3.99659864,8.5 C3.99659864,3.80557963 7.80370111,0 12.5,0 C17.1962989,0 21.0034014,3.80557963 21.0034014,8.5 C21.0034014,13.1944204 17.1962989,17 12.5,17 L12.5,17 Z M12.5,2.83333333 C9.36913407,2.83333333 6.83106576,5.37038642 6.83106576,8.5 C6.83106576,11.6296136 9.36913407,14.1666667 12.5,14.1666667 C15.6308659,14.1666667 18.1689342,11.6296136 18.1689342,8.5 C18.1689342,5.37038642 15.6308659,2.83333333 12.5,2.83333333 L12.5,2.83333333 Z"></path>
                    </g>
                    <text id="平均每位访客消费达到57.6美金" font-family="PingFangSC-Medium, PingFang SC" font-size="18" font-weight="400" letter-spacing="0.200000003">
                        <tspan x="0" y="104" fill="#B3B3B3">平均每位访客消费达到</tspan>
                        <tspan x="182" y="104" font-size="32" fill="#434959">57.6</tspan>
                        <tspan x="247.536" y="104" fill="#B3B3B3">美</tspan>
                        <tspan x="265.736" y="104" fill="#B3B3B3">金</tspan>
                    </text>
                </g>
                <g id="Group-6" transform="translate(350.000000, 153.000000)">
                    <text id="平均每平方英尺的收入为5971美金（20" font-family="PingFangSC-Medium, PingFang SC" font-size="18" font-weight="400" letter-spacing="0.200000003">
                        <tspan x="0" y="105" fill="#B3B3B3">平均每平方英尺的收入为</tspan>
                        <tspan x="200.2" y="105" font-size="32" fill="#434959">5971</tspan>
                        <tspan x="270.088" y="105" fill="#B3B3B3">美金（2012年</tspan>
                        <tspan x="383.432" y="105" fill="#B3B3B3">）</tspan>
                    </text>
                    <text id="比第二名的蒂芙尼的3453美金，差不多高" font-family="PingFangSC-Medium, PingFang SC" font-size="18" font-weight="400" letter-spacing="0.200000003">
                        <tspan x="0" y="180" fill="#B3B3B3">比第二名的蒂芙尼的</tspan>
                        <tspan x="163.8" y="180" font-size="32" fill="#434959">3453</tspan>
                        <tspan x="241.4" y="180" fill="#B3B3B3">美金，差不多高了一倍</tspan>
                        <tspan x="423.4" y="180" fill="#B3B3B3">.</tspan>
                    </text>
                    <text id="坪效" font-family="PingFangSC-Semibold, PingFang SC" font-size="36" font-weight="500" fill="#434959">
                        <tspan x="62" y="38">坪效</tspan>
                    </text>
                    <g id="stats2" transform="translate(0.000000, 10.000000)" fill="#4286F3">
                        <path d="M24.1818182,31 C22.0730946,31 20.3636364,29.2651034 20.3636364,27.125 L20.3636364,3.875 C20.3636364,1.73489659 22.0730946,0 24.1818182,0 C26.2905418,0 28,1.73489659 28,3.875 L28,27.125 C28,29.2651034 26.2905418,31 24.1818182,31 L24.1818182,31 Z M25.4545455,2.58333333 L22.9090909,2.58333333 L22.9090909,28.4166667 L25.4545455,28.4166667 L25.4545455,2.58333333 L25.4545455,2.58333333 Z M14,31 C11.8912764,31 10.1818182,29.2651034 10.1818182,27.125 L10.1818182,12.9166667 C10.1818182,10.7765633 11.8912764,9.04166667 14,9.04166667 C16.1087236,9.04166667 17.8181818,10.7765633 17.8181818,12.9166667 L17.8181818,27.125 C17.8181818,29.2651034 16.1087236,31 14,31 L14,31 Z M15.2727273,11.625 L12.7272727,11.625 L12.7272727,28.4166667 L15.2727273,28.4166667 L15.2727273,11.625 L15.2727273,11.625 Z M3.81818182,31 C1.70945823,31 0,29.2651034 0,27.125 L0,21.9583333 C0,19.8182299 1.70945823,18.0833333 3.81818182,18.0833333 C5.92690541,18.0833333 7.63636364,19.8182299 7.63636364,21.9583333 L7.63636364,27.125 C7.63636364,29.2651034 5.92690541,31 3.81818182,31 L3.81818182,31 Z M5.09090909,20.6666667 L2.54545455,20.6666667 L2.54545455,28.4166667 L5.09090909,28.4166667 L5.09090909,20.6666667 L5.09090909,20.6666667 Z"></path>
                    </g>
                </g>
                <path d="M183.445912,883.123351 L131.943022,873.883905 C136.223803,857.458141 144.450806,844.871196 156.624277,836.122691 C168.797749,827.374187 186.032093,823 208.327828,823 C233.923332,823 252.428514,827.775898 263.843931,837.327836 C275.259347,846.879775 280.966969,858.886471 280.966969,873.348285 C280.966969,881.828978 278.648248,889.506122 274.010735,896.379947 C269.373222,903.253772 262.372466,909.279438 253.008258,914.457124 C260.588808,916.331804 266.385612,918.518897 270.398844,921.01847 C276.909199,925.03564 281.970254,930.324835 285.582164,936.886214 C289.194073,943.447592 291,951.280957 291,960.386544 C291,971.813162 288.012416,982.770946 282.037159,993.260224 C276.061902,1003.7495 267.455878,1011.82836 256.218827,1017.49703 C244.981777,1023.16571 230.222222,1026 211.939719,1026 C194.103131,1026 180.034734,1023.90218 169.734104,1019.70646 C159.433475,1015.51075 150.961222,1009.3735 144.317093,1001.29453 C137.672964,993.215549 132.567318,983.061187 129,970.831135 L183.445912,963.600264 C185.586303,974.58053 188.908318,982.190722 193.412056,986.431069 C197.915795,990.671415 203.645713,992.791557 210.601982,992.791557 C217.914983,992.791557 224.001627,990.113483 228.862097,984.757256 C233.722568,979.401029 236.152766,972.259499 236.152766,963.332454 C236.152766,954.226867 233.811749,947.174607 229.129645,942.175462 C224.447541,937.176316 218.093351,934.676781 210.066887,934.676781 C205.786106,934.676781 199.90012,935.74801 192.408753,937.890501 L195.218002,898.924142 C198.250222,899.370495 200.613534,899.593668 202.30801,899.593668 C209.442645,899.593668 215.395517,897.317305 220.166804,892.764512 C224.938092,888.211719 227.323699,882.810937 227.323699,876.562005 C227.323699,870.580885 225.540067,865.804987 221.97275,862.234169 C218.405432,858.663351 213.500444,856.877968 207.257638,856.877968 C200.836467,856.877968 195.619343,858.819572 191.606111,862.702836 C187.592878,866.586101 184.87284,873.392871 183.445912,883.123351 Z" id="3" fill="#F6F6F6"></path>
                <g id="Group-4" transform="translate(350.000000, 860.000000)">
                    <text id="客流量" font-family="PingFangSC-Semibold, PingFang SC" font-size="36" font-weight="500" fill="#434959">
                        <tspan x="62" y="38">客流量</tspan>
                    </text>
                    <text id="平均来点人数为2万人/每周" font-family="PingFangSC-Medium, PingFang SC" font-size="18" font-weight="400" letter-spacing="0.200000003">
                        <tspan x="0" y="104" fill="#B3B3B3">平均来点人数为</tspan>
                        <tspan x="127.4" y="104" font-size="32" fill="#434959">2万人</tspan>
                        <tspan x="211.2" y="104" fill="#B3B3B3">/每周</tspan>
                    </text>
                    <g id="users" transform="translate(2.000000, 10.000000)" fill="#4286F3">
                        <path d="M28.4462176,17.4516672 C25.0039713,17.4516672 22.2134793,14.6611752 22.2134793,11.2189289 C22.2134793,7.77668262 25.0039713,4.98619064 28.4462176,4.98619064 C31.8884639,4.98619064 34.6789559,7.77668262 34.6789559,11.2189289 C34.6789559,14.6611752 31.8884639,17.4516672 28.4462176,17.4516672 L28.4462176,17.4516672 Z M28.4462176,7.47928595 C26.3808698,7.47928595 24.7065746,9.15358115 24.7065746,11.2189289 C24.7065746,13.2842767 26.3808698,14.9585719 28.4462176,14.9585719 C30.5115654,14.9585719 32.1858606,13.2842767 32.1858606,11.2189289 C32.1858606,9.15358115 30.5115654,7.47928595 28.4462176,7.47928595 L28.4462176,7.47928595 Z M17.838097,24.0833008 C16.5880707,21.4609167 13.8975073,19.8338365 10.9945504,19.9447625 C5.37262041,19.9447625 3.11636915,24.4984011 2.48062984,29.9171438 L0,29.9171438 C0.810255978,23.1546228 4.00141799,17.4516672 10.9945504,17.4516672 C14.4152471,17.3370422 17.631807,19.0763672 19.4087471,22.0015662 C18.7856773,22.6144663 18.2564302,23.3159287 17.838097,24.0833008 L17.838097,24.0833008 Z M10.9945504,14.9585719 C6.86385478,14.9585719 3.5152644,11.6099815 3.5152644,7.47928595 C3.5152644,3.34859038 6.86385478,0 10.9945504,0 C15.1252459,0 18.4738363,3.34859038 18.4738363,7.47928595 C18.4738363,11.6099815 15.1252459,14.9585719 10.9945504,14.9585719 L10.9945504,14.9585719 Z M10.9945504,2.49309532 C8.24075331,2.49309532 6.00835972,4.72548891 6.00835972,7.47928595 C6.00835972,10.233083 8.24075331,12.4654766 10.9945504,12.4654766 C13.7483474,12.4654766 15.980741,10.233083 15.980741,7.47928595 C15.980741,4.72548891 13.7483474,2.49309532 10.9945504,2.49309532 L10.9945504,2.49309532 Z M28.4462176,19.9447625 C33.9310273,19.9447625 36.3991916,24.5170994 37.01,29.9171438 L34.5418356,29.9171438 C34.0930785,25.8521519 32.4725665,22.4378579 28.4462176,22.4378579 C24.4198686,22.4378579 22.7993567,25.854645 22.3505995,29.9171438 L19.8824352,29.9171438 C20.4932435,24.5183459 22.9614079,19.9447625 28.4462176,19.9447625 L28.4462176,19.9447625 Z"></path>
                    </g>
                </g>
                <text id="source，美国连锁店利润调查机构Re" font-family="PingFangSC-Regular, PingFang SC" font-size="14" font-weight="normal" letter-spacing="0.155555561" fill="#434959">
                    <tspan x="116" y="1122">source，美国连锁店利润调查机构Retail Sails数据显示</tspan>
                </text>
            </g>
        </g>
    </g>
</svg>