<?xml version="1.0" encoding="UTF-8"?>
<svg width="108px" height="19px" viewBox="0 0 108 19" version="1.1" xmlns="http://www.w3.org/2000/svg" xmlns:xlink="http://www.w3.org/1999/xlink">
    <!-- Generator: Sketch 49 (51002) - http://www.bohemiancoding.com/sketch -->
    <title>img_bottom_logo_slice</title>
    <desc>Created with Sketch.</desc>
    <defs></defs>
    <g id="Symbols" stroke="none" stroke-width="1" fill="none" fill-rule="evenodd">
        <g id="Artboard" transform="translate(-242.000000, -89.000000)">
            <g id="img_bottom_logo" transform="translate(242.000000, 89.000000)">
                <path d="M0.8168375,18 L0.8168375,0.7734375 L8.35199375,0.7734375 C10.0238771,0.7734375 11.3305047,1.19335518 12.2719156,2.03320312 C13.2133266,2.87305107 13.684025,4.03514883 13.684025,5.51953125 C13.684025,7.15235191 13.2133266,8.42968289 12.2719156,9.3515625 C11.3305047,10.2734421 10.0238771,10.734375 8.35199375,10.734375 C6.15667027,10.7265625 4.42231262,10.7343749 3.14886875,10.7578125 L3.14886875,18 L0.8168375,18 Z M3.14886875,8.7421875 L7.777775,8.7421875 C8.98871855,8.7421875 9.87542844,8.48633068 10.4379313,7.97460938 C11.0004341,7.46288807 11.2816813,6.66016172 11.2816813,5.56640625 C11.2816813,4.59765141 11.0004341,3.88867412 10.4379313,3.43945312 C9.87542844,2.99023213 8.98871855,2.765625 7.777775,2.765625 L3.14886875,2.765625 L3.14886875,8.7421875 Z M28.53472,18.46875 C26.0347075,18.46875 24.0112902,17.634774 22.4644075,15.9667969 C20.9175248,14.2988198 20.144095,12.1093886 20.144095,9.3984375 C20.144095,6.67967391 20.9175248,4.48438336 22.4644075,2.8125 C24.0112902,1.14061664 26.0347075,0.3046875 28.53472,0.3046875 C31.0503576,0.3046875 33.0796342,1.14061664 34.6226106,2.8125 C36.1655871,4.48438336 36.9370638,6.67967391 36.9370638,9.3984375 C36.9370638,12.1093886 36.1655871,14.2988198 34.6226106,15.9667969 C33.0796342,17.634774 31.0503576,18.46875 28.53472,18.46875 Z M28.53472,16.40625 C30.331604,16.40625 31.7808082,15.7617252 32.8823763,14.4726562 C33.9839443,13.1835873 34.53472,11.492198 34.53472,9.3984375 C34.53472,7.29686449 33.9839443,5.59961584 32.8823763,4.30664062 C31.7808082,3.01366541 30.331604,2.3671875 28.53472,2.3671875 C26.7456486,2.3671875 25.3003505,3.01366541 24.1987825,4.30664062 C23.0972145,5.59961584 22.5464388,7.29686449 22.5464388,9.3984375 C22.5464388,11.492198 23.0972145,13.1835873 24.1987825,14.4726562 C25.3003505,15.7617252 26.7456486,16.40625 28.53472,16.40625 Z M54.6471338,5.765625 C54.5455707,4.67968207 54.1178406,3.84179982 53.3639306,3.25195312 C52.6100206,2.66210643 51.5963589,2.3671875 50.322915,2.3671875 C49.0104084,2.3671875 48.0143246,2.62109121 47.3346338,3.12890625 C46.6549429,3.63672129 46.3151025,4.37890137 46.3151025,5.35546875 C46.3151025,6.01953457 46.5416627,6.51562336 46.99479,6.84375 C47.4479173,7.17187664 48.3580644,7.49609215 49.7252588,7.81640625 L52.7252588,8.53125 C54.3346418,8.91406441 55.4830678,9.480465 56.1705713,10.2304688 C56.8580747,10.97266 57.2018213,12.0234307 57.2018213,13.3828125 C57.2018213,14.9453203 56.6100303,16.1835892 55.4264306,17.0976562 C54.242831,18.0117233 52.6393314,18.46875 50.6158838,18.46875 C48.3658725,18.46875 46.6080776,17.9414115 45.3424463,16.8867188 C44.1080651,15.8476511 43.4908838,14.4257903 43.4908838,12.6210938 L43.4908838,12.4921875 L45.635415,12.4921875 C45.6744777,13.7421937 46.1275982,14.7070279 46.99479,15.3867188 C47.8619818,16.0664096 49.069001,16.40625 50.6158838,16.40625 C52.0455784,16.40625 53.131505,16.1601587 53.8736963,15.6679688 C54.6158875,15.1757788 54.9869775,14.4531298 54.9869775,13.5 C54.9869775,12.6718709 54.7408862,12.0585957 54.2486963,11.6601562 C53.7643188,11.2695293 52.7877661,10.8984393 51.3190088,10.546875 L48.3190088,9.83203125 C46.8033762,9.47265445 45.7213557,8.97265945 45.072915,8.33203125 C44.4244743,7.69140305 44.1002588,6.80469316 44.1002588,5.671875 C44.1002588,4.02342926 44.6608,2.7168017 45.7818994,1.75195312 C46.9029987,0.787104551 48.4166555,0.3046875 50.322915,0.3046875 C52.2604247,0.3046875 53.803378,0.789057656 54.9518213,1.7578125 C56.1002645,2.72656734 56.7135396,4.06249148 56.791665,5.765625 L54.6471338,5.765625 Z M64.8337663,18 L64.8337663,0.7734375 L72.3689225,0.7734375 C74.0408059,0.7734375 75.3474334,1.19335518 76.2888444,2.03320312 C77.2302553,2.87305107 77.7009538,4.03514883 77.7009538,5.51953125 C77.7009538,7.15235191 77.2302553,8.42968289 76.2888444,9.3515625 C75.3474334,10.2734421 74.0408059,10.734375 72.3689225,10.734375 C70.173599,10.7265625 68.4392414,10.7343749 67.1657975,10.7578125 L67.1657975,18 L64.8337663,18 Z M67.1657975,8.7421875 L71.7947038,8.7421875 C73.0056473,8.7421875 73.8923572,8.48633068 74.45486,7.97460938 C75.0173628,7.46288807 75.29861,6.66016172 75.29861,5.56640625 C75.29861,4.59765141 75.0173628,3.88867412 74.45486,3.43945312 C73.8923572,2.99023213 73.0056473,2.765625 71.7947038,2.765625 L67.1657975,2.765625 L67.1657975,8.7421875 Z M84.85243,18 L84.85243,5.4609375 L86.961805,5.4609375 L86.961805,18 L84.85243,18 Z M84.8289925,0.7734375 L86.9852425,0.7734375 L86.9852425,3.1640625 L84.8289925,3.1640625 L84.8289925,0.7734375 Z" id="POSPi" fill="#464855"></path>
                <rect id="Rectangle" fill="#4286F3" x="103" y="13" width="5" height="5"></rect>
            </g>
        </g>
    </g>
</svg>