<?xml version="1.0" encoding="UTF-8"?>
<svg width="48px" height="48px" viewBox="0 0 48 48" version="1.1" xmlns="http://www.w3.org/2000/svg" xmlns:xlink="http://www.w3.org/1999/xlink">
    <!-- Generator: Sketch 49 (51002) - http://www.bohemiancoding.com/sketch -->
    <title>img_youtube_logo_slice</title>
    <desc>Created with Sketch.</desc>
    <defs>
        <rect id="path-1" x="0" y="0" width="48" height="48"></rect>
        <filter x="-5.2%" y="-3.1%" width="110.4%" height="112.5%" filterUnits="objectBoundingBox" id="filter-2">
            <feOffset dx="0" dy="2" in="SourceAlpha" result="shadowOffsetOuter1"></feOffset>
            <feGaussianBlur stdDeviation="0.5" in="shadowOffsetOuter1" result="shadowBlurOuter1"></feGaussianBlur>
            <feComposite in="shadowBlurOuter1" in2="SourceAlpha" operator="out" result="shadowBlurOuter1"></feComposite>
            <feColorMatrix values="0 0 0 0 0   0 0 0 0 0   0 0 0 0 0  0 0 0 0.03 0" type="matrix" in="shadowBlurOuter1"></feColorMatrix>
        </filter>
    </defs>
    <g id="Symbols" stroke="none" stroke-width="1" fill="none" fill-rule="evenodd">
        <g id="Artboard" transform="translate(-136.000000, 0.000000)">
            <g id="img_youtube_logo" transform="translate(136.000000, 0.000000)">
                <g id="Rectangle-Copy-5">
                    <use fill="black" fill-opacity="1" filter="url(#filter-2)" xlink:href="#path-1"></use>
                    <use fill="#FFFFFF" fill-rule="evenodd" xlink:href="#path-1"></use>
                    <rect stroke="#E4E5EC" stroke-width="1" x="0.5" y="0.5" width="47" height="47"></rect>
                </g>
                <path d="M30.12,33 L17.88,33 C16.296,33 15,31.65 15,30 L15,26.625 C15,24.975 16.296,23.625 17.88,23.625 L30.12,23.625 C31.704,23.625 33,24.975 33,26.625 L33,30 C33,31.65 31.704,33 30.12,33 Z M20.76,24.75 L19.68,24.75 L18.24,24.75 L17.52,24.75 L17.52,25.5 L18.6,25.5 L18.6,30.75 L19.68,30.75 L19.68,25.5 L20.76,25.5 L20.76,24.75 Z M23.28,26.25 L22.56,26.25 L22.56,29.775 C22.308,29.85 21.804,30.375 21.48,29.625 L21.48,26.25 L20.76,26.25 L20.76,30 C20.76,30 20.724,31.05 21.48,31.125 C21.48,31.125 21.912,31.2375 22.56,30.4875 L22.56,31.125 L23.28,31.125 L23.28,26.25 Z M25.26,26.25 C25.08,26.25 24.9,26.325 24.72,26.475 L24.72,24.75 L24,24.75 L24,30.75 C24,30.75 25.008,31.125 25.26,31.125 C25.944,31.125 26.52,30.0375 26.52,28.6875 C26.52,27.3375 25.944,26.25 25.26,26.25 Z M28.32,26.25 C27.528,26.25 26.88,27.3375 26.88,28.6875 C26.88,30.0375 27.528,31.125 28.32,31.125 C29.004,31.125 29.58,30.3375 29.724,29.25 L28.68,29.25 C28.608,29.8875 28.572,30.375 28.32,30.375 C28.032,30.375 27.996,29.7 27.96,28.875 L28.32,28.875 L29.04,28.875 L29.76,28.875 C29.76,28.8 29.76,28.7625 29.76,28.6875 C29.76,27.3375 29.112,26.25 28.32,26.25 Z M28.32,27 C28.572,27 28.608,27.4875 28.68,28.125 L27.996,28.125 C28.068,27.45 28.104,27 28.32,27 Z M25.08,30 C24.792,30 24.72,29.625 24.72,28.6875 C24.72,27.75 24.792,27 25.08,27 C25.368,27 25.44,27.75 25.44,28.6875 C25.44,29.625 25.368,30 25.08,30 Z M27.96,21.4875 C27.312,22.2375 26.88,22.125 26.88,22.125 C26.124,22.05 26.16,21 26.16,21 L26.16,16.875 L27.24,16.875 L27.24,21 C27.42,21.225 27.708,21.1875 27.96,21.15 L27.96,16.875 L29.04,16.875 L29.04,22.125 L27.96,22.125 L27.96,21.4875 Z M23.82,22.125 C22.92,22.125 22.2,20.85 22.2,19.3125 C22.2,17.775 22.92,16.5 23.82,16.5 C24.72,16.5 25.44,17.775 25.44,19.3125 C25.44,20.85 24.72,22.125 23.82,22.125 Z M23.82,17.625 C23.532,17.625 23.28,18.375 23.28,19.3125 C23.28,20.25 23.532,21 23.82,21 C24.108,21 24.36,20.25 24.36,19.3125 C24.36,18.375 24.108,17.625 23.82,17.625 Z M20.76,22.125 L20.4,22.125 L20.04,22.125 L19.68,22.125 L19.68,18.75 L18.24,15 L19.68,15 L20.04,17.25 L20.22,17.8125 L20.4,17.25 L20.76,15 L22.2,15 L20.76,18.75 L20.76,22.125 Z" id="Shape" fill="#A7ABBD" fill-rule="nonzero"></path>
            </g>
        </g>
    </g>
</svg>