<?xml version="1.0" encoding="UTF-8"?>
<svg width="48px" height="48px" viewBox="0 0 48 48" version="1.1" xmlns="http://www.w3.org/2000/svg" xmlns:xlink="http://www.w3.org/1999/xlink">
    <!-- Generator: Sketch 49 (51002) - http://www.bohemiancoding.com/sketch -->
    <title>img_youku_logo_slice</title>
    <desc>Created with Sketch.</desc>
    <defs>
        <rect id="path-1" x="0" y="0" width="48" height="48"></rect>
        <filter x="-5.2%" y="-3.1%" width="110.4%" height="112.5%" filterUnits="objectBoundingBox" id="filter-2">
            <feOffset dx="0" dy="2" in="SourceAlpha" result="shadowOffsetOuter1"></feOffset>
            <feGaussianBlur stdDeviation="0.5" in="shadowOffsetOuter1" result="shadowBlurOuter1"></feGaussianBlur>
            <feComposite in="shadowBlurOuter1" in2="SourceAlpha" operator="out" result="shadowBlurOuter1"></feComposite>
            <feColorMatrix values="0 0 0 0 0   0 0 0 0 0   0 0 0 0 0  0 0 0 0.03 0" type="matrix" in="shadowBlurOuter1"></feColorMatrix>
        </filter>
    </defs>
    <g id="Symbols" stroke="none" stroke-width="1" fill="none" fill-rule="evenodd">
        <g id="Artboard" transform="translate(-204.000000, 0.000000)">
            <g id="img_youku_logo" transform="translate(204.000000, 0.000000)">
                <g id="Rectangle-Copy-4">
                    <use fill="black" fill-opacity="1" filter="url(#filter-2)" xlink:href="#path-1"></use>
                    <use fill="#FFFFFF" fill-rule="evenodd" xlink:href="#path-1"></use>
                    <rect stroke="#E4E5EC" stroke-width="1" x="0.5" y="0.5" width="47" height="47"></rect>
                </g>
                <path d="M11.5506666,15.0454155 C11.2495701,15.1606742 11.042055,15.4064147 11.0099301,15.6946134 C10.9719189,16.0404933 10.9864849,16.0738386 12.1323075,18.1005499 C12.7139484,19.1380861 13.1933282,20.0027858 13.1933282,20.024015 C13.1933282,20.042241 13.0091586,20.4851537 12.7840845,21.0069767 C12.5561172,21.5287997 12.3514953,22.0385065 12.3251569,22.138646 C12.2053368,22.624017 12.4158449,23.0032422 12.8834523,23.14584 C13.2430121,23.2580957 13.4885384,23.1579562 13.7222922,22.80607 C13.8363258,22.6361332 16.604258,16.2771207 16.6598282,16.0617225 C16.7124053,15.8524341 16.7124053,15.7461847 16.6568352,15.5550188 C16.6013648,15.3608496 16.4230814,15.1849065 16.1980073,15.0969868 C15.6865025,14.899711 15.3825128,15.0241863 15.1545455,15.5277833 C15.0931889,15.6642712 14.8154379,16.3014566 14.5377867,16.9476514 C14.2572422,17.5968493 14.0233887,18.1247822 14.0146092,18.1247822 C14.0029364,18.121779 13.6609356,17.5180426 13.2517916,16.7807177 C12.6583782,15.7158426 12.4743083,15.4064147 12.3456091,15.2729299 C12.1088623,15.0210796 11.8254246,14.9391661 11.5506666,15.0454155 Z M18.6005933,15.0878738 C17.9312573,15.2395846 17.3349506,15.6612681 16.9345862,16.2620014 C16.1278712,17.4724775 16.2652502,19.2443354 17.2443623,20.2606424 C17.7470876,20.7763556 18.355067,21.0190928 19.1413297,21.0160897 C19.9597174,21.0099798 20.5763765,20.7521233 21.0762086,20.2090711 C21.4415549,19.8086167 21.6725152,19.3049162 21.771883,18.6739442 C21.8391259,18.258267 21.8215669,17.58173 21.7309786,17.24196 C21.4591139,16.1982104 20.7517667,15.421534 19.813559,15.1364419 C19.4539991,15.0271895 18.9542668,15.0059603 18.6005933,15.0878738 Z M19.5563599,16.547197 C19.9041473,16.7140271 20.193571,17.1174846 20.310398,17.5938462 C20.4039793,17.9760745 20.3426227,18.60715 20.1847915,18.9348039 C19.781434,19.7509355 18.9659396,19.9603275 18.3842987,19.3959426 C17.7295286,18.761864 17.6974037,17.5089296 18.3170558,16.8262828 C18.6824021,16.4288315 19.1149913,16.3317988 19.5563599,16.547197 Z M22.4353328,15.275933 C22.2921673,15.321498 22.1226634,15.5125604 22.061207,15.7007233 C22.0086298,15.8524341 22.0057366,15.9828121 22.0057366,17.5483847 C22.0057366,19.1987704 22.0057366,19.2382255 22.0728797,19.4900758 C22.1079976,19.6325701 22.1781337,19.8358522 22.2278176,19.9389948 C22.3389579,20.1787289 22.6399546,20.5154958 22.8679219,20.6580936 C23.4904673,21.049435 24.4960176,21.1616906 25.3610962,20.9341762 C26.1123408,20.7338972 26.5829412,20.2757617 26.7904563,19.5355373 C26.8575994,19.2959067 26.8575994,19.2806839 26.8575994,17.5483847 C26.8575994,15.8402143 26.8575994,15.8008627 26.7962428,15.6672744 C26.7085477,15.4701021 26.5653822,15.3396205 26.3783193,15.2820429 C26.0509842,15.1849065 25.7030971,15.3153882 25.5657181,15.5884676 C25.463457,15.7947529 25.4575708,15.8705565 25.4430048,17.5028197 L25.4254459,19.1410892 L25.3494235,19.3080229 C25.2412762,19.5506566 25.1126767,19.6872481 24.8905956,19.7995037 C24.7123122,19.8905302 24.671308,19.8996432 24.431668,19.8965365 C24.2065939,19.8965365 24.142344,19.8844203 23.9845128,19.8116199 C23.7711115,19.7084772 23.624953,19.5537633 23.5139125,19.311026 L23.4378901,19.1410892 L23.4233241,17.4724775 L23.4086584,15.8038659 L23.3209633,15.6218129 C23.1923638,15.3548434 23.0491984,15.2608137 22.7568814,15.2517007 C22.6340684,15.2486976 22.4880097,15.257707 22.4353328,15.275933 Z M32.5601744,15.2880492 C32.4111227,15.3427272 32.2970891,15.4609891 32.2152803,15.6491519 L32.1480374,15.8038659 L32.1480374,17.5483847 C32.1480374,19.2806839 32.1480374,19.2959067 32.2152803,19.5355373 C32.4929315,20.527612 33.2791943,21.0373188 34.5447371,21.040322 C35.1468302,21.0434287 35.6701075,20.9280664 36.055906,20.7126681 C36.1406081,20.6672066 36.3043256,20.5337218 36.4183591,20.4214662 C36.6667786,20.1787289 36.8275031,19.8844203 36.9327571,19.4900758 C37,19.2352224 37,19.2139932 37,17.5331619 L37,15.834208 L36.9327571,15.6824973 C36.8187236,15.4246407 36.6492197,15.2911559 36.3891274,15.2547039 C36.1698398,15.2213586 35.9711042,15.2911559 35.8161662,15.4518761 C35.5969784,15.6824973 35.6028646,15.6309259 35.5853057,17.4877004 L35.5677467,19.1410892 L35.4917243,19.311026 C35.3923565,19.5294274 35.2111799,19.7175902 35.0007715,19.8177297 C34.8603995,19.8874235 34.7990429,19.8996432 34.5594029,19.8996432 C34.3196631,19.8996432 34.2583064,19.8874235 34.1209274,19.8207329 C33.9163056,19.7205934 33.7526879,19.5506566 33.6562133,19.338365 L33.5801909,19.1714314 L33.565625,17.5180426 C33.548066,15.7340686 33.548066,15.7492914 33.3873416,15.4974411 C33.2849808,15.3457303 33.0716792,15.2425877 32.8523916,15.2425877 C32.7530238,15.2455909 32.6244243,15.2638169 32.5601744,15.2880492 Z M27.5708328,15.312385 C27.3983359,15.3790757 27.2901886,15.476212 27.2200525,15.6309259 C27.1528096,15.7705206 27.1499163,15.806869 27.1265709,16.8960801 C27.1148982,17.5119327 27.1090119,18.579811 27.1119052,19.2655645 L27.1206847,20.509386 L27.2083797,20.6884358 C27.2815089,20.8370399 27.3224133,20.8796017 27.4422333,20.9432892 C27.5679396,21.0130865 27.62341,21.022096 27.880609,21.022096 C28.1261353,21.022096 28.1933781,21.0099798 28.2957389,20.9554054 C28.5938424,20.7885753 28.6259673,20.6550905 28.6259673,19.5597696 C28.6259673,19.0865147 28.6318536,18.7011797 28.640633,18.7011797 C28.6523058,18.7011797 29.1521378,19.1745381 29.7542309,19.7539387 C30.3651035,20.3425559 30.9087333,20.8431497 30.9847556,20.885608 C31.1659323,20.9857475 31.4670287,21.0069767 31.6569848,20.9311731 C31.966761,20.8066977 32.0924673,20.5852932 32.0691218,20.1969549 C32.0456766,19.7995037 32.0135517,19.7570454 31.1133551,18.8953488 C30.6807659,18.4797751 30.3241991,18.1247822 30.3241991,18.1095593 C30.3212061,18.0914369 30.5491734,17.8578126 30.8269244,17.5877363 C31.712555,16.7231401 31.7387937,16.692798 31.8411545,16.4895158 C31.8937316,16.3802634 31.9405223,16.2285526 31.9493018,16.1376296 C31.9814267,15.815982 31.8031433,15.4974411 31.5020469,15.3457303 C31.3646679,15.275933 31.314984,15.26682 31.160046,15.2789362 C31.0606782,15.2880492 30.9175127,15.3245012 30.8473766,15.3609532 C30.7537953,15.4094178 30.4117944,15.7492914 29.6723223,16.5259679 L28.6288606,17.6241883 L28.6259673,16.7989437 C28.6259673,16.3317988 28.6114013,15.9070085 28.5938424,15.8220919 C28.552938,15.6248161 28.4243385,15.4428667 28.2694005,15.3609532 C28.1115693,15.275933 27.7315572,15.2517007 27.5708328,15.312385 Z M16.7796482,24.6263924 C16.3675112,25.9825731 15.7215207,27.3235308 14.9235852,28.4825392 C14.6810519,28.8374285 14.6780589,28.8435384 14.7365223,28.8921065 C14.768747,28.919342 14.9470304,29.0831689 15.1340933,29.2561089 C15.4555422,29.5534206 15.4789874,29.5686435 15.5169986,29.5139655 C15.540344,29.4806202 15.6689435,29.2955641 15.8004363,29.101395 L16.0430693,28.7495087 L16.0518488,30.8701461 L16.0577351,32.990887 L17.1069833,32.990887 L17.1157628,32.6904686 L17.1245423,32.3871505 L17.5191203,32.6935753 L17.9108051,33 L18.097868,32.790608 C19.1149913,31.6468225 19.6820662,30.6638608 20.0181808,29.468504 C20.1292214,29.0650465 20.2461481,28.4703195 20.2958321,28.0456328 C20.3571887,27.4964708 20.345516,27.5298161 20.4595495,27.5298161 L20.5589173,27.5298161 L20.5589173,29.6900121 C20.5589173,31.0460892 20.57059,31.9259083 20.5910422,32.0472769 C20.6582851,32.4780734 20.8394618,32.7178076 21.1960286,32.8451825 C21.3801982,32.9119767 21.4357684,32.9149798 22.1226634,32.9149798 C22.8124516,32.9149798 22.8650287,32.9119767 23.0491984,32.8451825 C23.4057652,32.7178076 23.6308393,32.4356151 23.7418798,31.9835894 C23.8032364,31.7408522 23.9435087,30.5758375 23.9143767,30.548602 C23.9055972,30.539489 23.6775302,30.4666886 23.4057652,30.3847751 C22.973176,30.2572966 22.9088264,30.2451805 22.8942604,30.2876388 C22.8854809,30.3149778 22.8679219,30.4575756 22.8562492,30.6092864 C22.8153448,31.1947968 22.7481019,31.6953907 22.6925318,31.8046432 C22.6107229,31.9714733 22.4937961,32.0260477 22.18402,32.0412706 C21.8683576,32.0563899 21.7426513,32.0078217 21.6637357,31.8379885 C21.6140518,31.7408522 21.6111586,31.5710189 21.6111586,29.6293278 L21.6111586,27.5298161 L23.6570779,27.5298161 L23.6570779,26.5893127 L20.3835271,26.5893127 L20.3835271,24.2532771 L19.8515701,24.2592834 L19.3167199,24.2683964 L19.3079404,25.4274047 L19.3020542,26.5893127 L18.4018576,26.5954225 L17.5044546,26.6045355 L17.4957748,27.0656742 L17.4869954,27.5298161 L19.2728225,27.5298161 L19.2728225,27.6451784 C19.2728225,27.9970646 19.1178845,28.8617644 18.9659396,29.3441322 C18.6940748,30.2178414 18.0569635,31.2463682 17.3320574,31.9896993 L17.1098766,32.2142106 L17.1098766,26.9200733 L17.2677078,26.5498575 C17.5542382,25.8763237 17.9312573,24.6991929 17.8785804,24.6446184 C17.8611212,24.6263924 16.9199204,24.2501704 16.896575,24.2532771 C16.893582,24.2532771 16.8410048,24.4201072 16.7796482,24.6263924 Z M31.0227668,24.9358203 L31.0227668,25.588125 L30.6865524,25.588125 C30.3855557,25.588125 30.3504378,25.5821187 30.3504378,25.5335505 C30.3504378,25.5062115 30.37089,25.3454913 30.3943352,25.1785576 C30.4176807,25.0117275 30.4381329,24.8326777 30.4381329,24.7811064 L30.4381329,24.6870768 L30.1692612,24.6658476 C30.0202094,24.6537314 29.8097013,24.6385086 29.704547,24.6293956 L29.5115979,24.6112731 L29.4911457,24.893362 C29.4648072,25.2574679 29.3304212,26.0887188 29.1959355,26.704675 C29.1403653,26.9685379 29.0936744,27.208272 29.0936744,27.2325043 C29.0936744,27.2689563 29.187156,27.2992985 29.5057116,27.3599828 C29.7337787,27.4054443 29.9237349,27.4387896 29.9266281,27.4327833 C29.9295213,27.4266734 29.9850915,27.208272 30.0435549,26.9443056 L30.1545954,26.4649409 L30.5813981,26.4740539 L31.0081011,26.4831669 L31.0168805,27.0960164 L31.0227668,27.711869 L29.2368399,27.711869 L29.2456194,28.1578884 L29.2543989,28.606911 L31.4260245,28.616024 L33.5948567,28.6220303 L33.5948567,27.711869 L32.0164449,27.711869 L32.0164449,26.467944 L33.3346647,26.467944 L33.3258852,26.0341444 L33.3172055,25.6033478 L32.6683217,25.5942348 L32.0164449,25.588125 L32.0164449,24.2836192 L31.0227668,24.2836192 L31.0227668,24.9358203 Z M21.4795661,24.6809669 C21.2428193,24.9601562 21.2019148,25.0238437 21.2340398,25.0541858 C21.257485,25.075415 21.3860845,25.1876706 21.5234635,25.2999262 C21.6608425,25.415185 21.9998503,25.7156035 22.2804946,25.964347 L22.7890063,26.4163727 L23.0199667,26.1615193 C23.353188,25.7914071 23.4583423,25.6549192 23.4407834,25.624577 C23.3969857,25.5486698 21.8391259,24.3443036 21.786449,24.3443036 C21.771883,24.3443036 21.634504,24.4959108 21.4795661,24.6809669 Z M24.533929,24.9358203 L24.533929,25.406072 L25.8784873,25.406072 L25.8784873,26.3769176 L24.533929,26.3769176 L24.5398153,29.3865905 C24.5485948,32.6935753 24.5398153,32.4932963 24.7209919,32.6965784 C24.9372865,32.9393157 25.1945853,32.9696578 26.9102763,32.9514318 C28.4564634,32.9393157 28.5090405,32.9302027 28.7282284,32.7025847 C28.9416297,32.4811801 28.929957,32.6722425 28.9416297,29.3592515 L28.9504092,26.3769176 L28.3131981,26.3709113 L27.6760869,26.3617983 L27.6673074,25.8824336 L27.6585279,25.406072 L28.947516,25.406072 L28.947516,24.4655686 L24.533929,24.4655686 L24.533929,24.9358203 Z M26.9014968,25.8915466 L26.9014968,26.3769176 L26.6384116,26.3769176 L26.6384116,25.406072 L26.9014968,25.406072 L26.9014968,25.8915466 Z M25.8784873,27.4843546 C25.8784873,28.1366593 25.6914244,28.9770232 25.4868025,29.2439927 C25.4458981,29.2985672 25.4430048,29.2227636 25.4400118,28.2943764 L25.4400118,27.2871824 L25.8784873,27.2871824 L25.8784873,27.4843546 Z M26.9073831,28.1002072 L26.9160628,28.9133357 L27.0125374,29.1135111 C27.1645821,29.432052 27.3720972,29.5746498 27.763782,29.6293278 L28.0122015,29.6656763 L28.0122015,30.199719 L25.4400118,30.199719 L25.4400118,29.4442717 L25.7469945,29.6293278 C26.0976751,29.8386162 26.0947818,29.8416194 26.2262746,29.5655368 C26.4572349,29.0831689 26.6384116,28.1882306 26.6384116,27.5146968 L26.6384116,27.2871824 L26.8986036,27.2871824 L26.9073831,28.1002072 Z M28.0122015,28.1244396 L28.0122015,28.9618003 L27.9186201,28.9436779 C27.6994323,28.8981128 27.6614211,28.7433989 27.6614211,27.8909188 L27.6614211,27.2871824 L28.0122015,27.2871824 L28.0122015,28.1244396 Z M28.0122015,31.4435404 C28.0122015,31.6710548 27.9975357,31.8652239 27.9799768,31.910789 C27.9069474,32.0716128 27.8455908,32.0807258 26.7203202,32.0807258 C25.7498877,32.0807258 25.6826449,32.0776191 25.5949498,32.0200414 C25.4722365,31.9441343 25.4400118,31.8167593 25.4400118,31.388966 L25.4400118,31.0491959 L28.0122015,31.0491959 L28.0122015,31.4435404 Z M29.5115979,30.7366613 C29.5174841,31.947241 29.5291569,32.3689245 29.5583886,32.459951 C29.6197452,32.6541201 29.8097013,32.8209502 30.0464481,32.8877444 C30.2306178,32.9393157 30.3592173,32.945322 31.4465765,32.945322 C32.5367292,32.945322 32.6624354,32.9393157 32.8466051,32.8877444 C33.0073295,32.8421793 33.0774657,32.8027242 33.171047,32.7056914 C33.3756688,32.4932963 33.3697826,32.5236385 33.3814553,30.7366613 L33.3931281,29.137847 L29.4999252,29.137847 L29.5115979,30.7366613 Z M32.3672252,30.9034914 C32.3672252,31.9137921 32.3555525,31.9714733 32.1626034,32.0412706 C32.0223311,32.0897352 30.8707221,32.0897352 30.7304498,32.0412706 C30.5375007,31.9714733 30.525828,31.9137921 30.525828,30.9034914 L30.525828,30.017666 L32.3672252,30.017666 L32.3672252,30.9034914 Z" id="Shape" fill="#A7ABBD" fill-rule="nonzero"></path>
            </g>
        </g>
    </g>
</svg>