<?xml version="1.0" encoding="UTF-8"?>
<svg width="24px" height="24px" viewBox="0 0 24 24" version="1.1" xmlns="http://www.w3.org/2000/svg" xmlns:xlink="http://www.w3.org/1999/xlink">
    <!-- Generator: Sketch 49 (51002) - http://www.bohemiancoding.com/sketch -->
    <title>img_aboutus_close_slice</title>
    <desc>Created with Sketch.</desc>
    <defs></defs>
    <g id="关于我们（√）" stroke="none" stroke-width="1" fill="none" fill-rule="evenodd">
        <g id="Artboard" transform="translate(-1376.000000, -40.000000)" fill="#333333">
            <path d="M1378.60355,40.440015 L1399.55998,61.3964458 C1400.14577,61.9822322 1400.14577,62.9319797 1399.55998,63.5177661 L1399.51777,63.559985 C1398.93198,64.1457714 1397.98223,64.1457714 1397.39645,63.559985 L1376.44002,42.6035542 C1375.85423,42.0177678 1375.85423,41.0680203 1376.44002,40.4822339 L1376.48223,40.440015 C1377.06802,39.8542286 1378.01777,39.8542286 1378.60355,40.440015 Z M1399.55998,42.6035542 L1378.60355,63.559985 C1378.01777,64.1457714 1377.06802,64.1457714 1376.48223,63.559985 L1376.44002,63.5177661 C1375.85423,62.9319797 1375.85423,61.9822322 1376.44002,61.3964458 L1397.39645,40.440015 C1397.98223,39.8542286 1398.93198,39.8542286 1399.51777,40.440015 L1399.55998,40.4822339 C1400.14577,41.0680203 1400.14577,42.0177678 1399.55998,42.6035542 Z" id="img_aboutus_Close"></path>
        </g>
    </g>
</svg>