<?xml version="1.0" encoding="UTF-8"?>
<svg width="48px" height="48px" viewBox="0 0 48 48" version="1.1" xmlns="http://www.w3.org/2000/svg" xmlns:xlink="http://www.w3.org/1999/xlink">
    <!-- Generator: Sketch 49 (51002) - http://www.bohemiancoding.com/sketch -->
    <title>img_linkedin_logo_slice</title>
    <desc>Created with Sketch.</desc>
    <defs>
        <rect id="path-1" x="0" y="0" width="48" height="48"></rect>
        <filter x="-5.2%" y="-3.1%" width="110.4%" height="112.5%" filterUnits="objectBoundingBox" id="filter-2">
            <feOffset dx="0" dy="2" in="SourceAlpha" result="shadowOffsetOuter1"></feOffset>
            <feGaussianBlur stdDeviation="0.5" in="shadowOffsetOuter1" result="shadowBlurOuter1"></feGaussianBlur>
            <feComposite in="shadowBlurOuter1" in2="SourceAlpha" operator="out" result="shadowBlurOuter1"></feComposite>
            <feColorMatrix values="0 0 0 0 0   0 0 0 0 0   0 0 0 0 0  0 0 0 0.03 0" type="matrix" in="shadowBlurOuter1"></feColorMatrix>
        </filter>
    </defs>
    <g id="Symbols" stroke="none" stroke-width="1" fill="none" fill-rule="evenodd">
        <g id="Artboard" transform="translate(-68.000000, 0.000000)">
            <g id="img_LinkedIn_logo" transform="translate(68.000000, 0.000000)">
                <g id="Rectangle-Copy-6">
                    <use fill="black" fill-opacity="1" filter="url(#filter-2)" xlink:href="#path-1"></use>
                    <use fill="#FFFFFF" fill-rule="evenodd" xlink:href="#path-1"></use>
                    <rect stroke="#E4E5EC" stroke-width="1" x="0.5" y="0.5" width="47" height="47"></rect>
                </g>
                <path d="M30.25,33 L30.25,25.7245376 C30.25,25.7245376 29.8375,24.2026297 28.375,24.2768691 C26.9125,24.3511085 26.425,24.5738267 25.75,25.3533405 L25.75,33 L22,33 L22,21.4928911 L25.75,21.4928911 L25.75,23.2003976 C25.75,23.2003976 26.9875,20.8247364 29.5,21.0103349 C31.825,21.1588138 33.55,22.5693626 33.925,25.5760588 L34,25.5760588 L34,33 L30.25,33 Z M17,20 C15.9,20 15,18.875 15,17.5 C15,16.125 15.9,15 17,15 C18.1,15 19,16.125 19,17.5 C19,18.875 18.1,20 17,20 Z M18,33 L15,33 L15,21 L18,21 L18,33 Z" id="Shape" fill="#A7ABBD" fill-rule="nonzero"></path>
            </g>
        </g>
    </g>
</svg>