<?xml version="1.0" encoding="UTF-8"?>
<svg width="183px" height="19px" viewBox="0 0 183 19" version="1.1" xmlns="http://www.w3.org/2000/svg" xmlns:xlink="http://www.w3.org/1999/xlink">
    <!-- Generator: Sketch 49 (51002) - http://www.bohemiancoding.com/sketch -->
    <title>img_aboutus_img2</title>
    <desc>Created with Sketch.</desc>
    <defs></defs>
    <g id="关于我们（√）" stroke="none" stroke-width="1" fill="none" fill-rule="evenodd">
        <g id="招聘详情" transform="translate(-477.000000, -144.000000)" fill="#4286F3">
            <g id="img_aboutus_img2" transform="translate(477.000000, 140.000000)">
                <rect id="Rectangle-3" x="0" y="13" width="100" height="2"></rect>
                <path d="M126.072,16.816 C126.072,18.712 126.072,19.696 125.664,20.536 C124.896,22.168 122.952,22.12 122.544,22.12 C121.992,22.12 121.32,22.096 120.168,21.904 L120.192,19.864 C121.08,20.152 121.968,20.2 122.28,20.2 C122.952,20.2 123.528,20.08 123.72,19.36 C123.816,19.048 123.84,18.208 123.84,17.272 L123.84,5.056 L126.072,5.056 L126.072,16.816 Z M135.072,18.208 C135.072,18.856 135.024,19.552 134.784,20.2 C134.064,22.192 131.856,22.168 131.352,22.168 C131.16,22.168 130.512,22.168 129.936,21.952 C129.48,21.784 128.472,21.208 128.112,19.888 C127.968,19.384 127.944,19.072 127.944,18.112 L127.944,9.664 C127.944,8.152 127.944,6.688 129.264,5.68 C129.672,5.368 130.392,4.936 131.592,4.936 C131.952,4.936 132.96,4.936 133.8,5.608 C134.232,5.944 134.472,6.328 134.568,6.52 C135.048,7.36 135.072,8.248 135.072,10.144 L135.072,18.208 Z M132.84,18.016 L132.84,9.472 C132.84,8.44 132.84,7.792 132.576,7.384 C132.432,7.168 132.144,6.88 131.544,6.88 C131.424,6.88 131.04,6.904 130.728,7.12 C130.128,7.504 130.176,8.2 130.176,9.472 L130.176,18.544 C130.176,19.456 130.32,20.32 131.472,20.32 C132.912,20.32 132.84,19.024 132.84,18.016 Z M143.616,17.44 C143.616,18.136 143.616,18.808 143.568,19.504 C143.544,19.696 143.568,20.848 142.848,21.472 C142.176,22.024 141.216,22 140.424,22 L137.016,22.0001536 L137.016,5.056 L140.976,5.056 C141.672,5.056 142.416,5.056 142.968,5.56 C143.568,6.136 143.568,6.928 143.592,8.44 C143.592,8.728 143.616,9.016 143.616,9.304 C143.616,9.832 143.592,10.36 143.568,10.888 C143.568,10.984 143.592,11.728 143.352,12.208 C143.184,12.568 142.8,12.808 142.44,12.904 C142.2,12.976 141.744,13.048 141.744,13.048 C142.344,13.096 143.04,13.264 143.352,13.816 C143.616,14.296 143.568,14.944 143.592,16.12 C143.592,16.552 143.616,16.984 143.616,17.44 Z M141.408,9.592 C141.408,9.064 141.384,8.536 141.336,8.008 C141.312,7.552 141.24,7.336 141.096,7.216 C140.928,7.072 140.688,7.072 140.28,7.072 L139.176,7.072 L139.176,12.16 L140.04,12.16 C140.736,12.16 141.24,12.136 141.336,11.296 C141.384,10.96 141.408,10.408 141.408,9.592 Z M141.456,16.96 C141.456,16.384 141.432,15.832 141.408,15.256 C141.384,14.944 141.36,14.44 141.12,14.2 C140.928,14.032 140.64,14.008 140.424,14.008 L139.176,14.008 L139.176,19.912 L140.328,19.912 C140.832,19.912 141.288,19.96 141.384,19.336 C141.408,19.072 141.456,17.944 141.456,16.96 Z M156.744,7.048 L154.104,7.048 L154.104,22 L151.824,22 L151.824,7.048 L149.256,7.048 L149.256,5.056 L156.744,5.056 L156.744,7.048 Z M160.08,22 L157.872,22 L157.872,5.056 L160.08,5.056 L160.08,22 Z M168.744,7.048 L166.104,7.048 L166.104,22 L163.824,22 L163.824,7.048 L161.256,7.048 L161.256,5.056 L168.744,5.056 L168.744,7.048 Z M175.944,22 L170.016,22 L170.016,5.056 L172.248,5.056 L172.248,19.912 L175.944,19.912 L175.944,22 Z M182.592,22 L177,22 L177,5.056 L182.592,5.056 L182.592,7.168 L179.256,7.168 L179.256,12.136 L182.232,12.136 L182.232,14.248 L179.28,14.248 L179.28,19.864 L182.592,19.864 L182.592,22 Z" id="JOB-TITLE"></path>
            </g>
        </g>
    </g>
</svg>